<svg xmlns="http://www.w3.org/2000/svg" viewBox="0 0 100 100">
  <defs>
    <linearGradient id="grad" x1="0%" y1="0%" x2="100%" y2="100%">
      <stop offset="0%" style="stop-color:#3b82f6;stop-opacity:1" />
      <stop offset="100%" style="stop-color:#1d4ed8;stop-opacity:1" />
    </linearGradient>
  </defs>
  <!-- Background circle -->
  <circle cx="50" cy="50" r="45" fill="url(#grad)"/>
  <!-- ASIC chip representation -->
  <rect x="25" y="25" width="50" height="50" rx="4" fill="#ffffff" opacity="0.95"/>
  <!-- Chip core -->
  <rect x="35" y="35" width="30" height="30" rx="2" fill="#1e293b"/>
  <!-- CPU symbol -->
  <rect x="42" y="42" width="16" height="16" rx="1" fill="#3b82f6"/>
  <!-- Connection pins -->
  <rect x="30" y="20" width="4" height="8" fill="#64748b"/>
  <rect x="43" y="20" width="4" height="8" fill="#64748b"/>
  <rect x="56" y="20" width="4" height="8" fill="#64748b"/>
  <rect x="30" y="72" width="4" height="8" fill="#64748b"/>
  <rect x="43" y="72" width="4" height="8" fill="#64748b"/>
  <rect x="56" y="72" width="4" height="8" fill="#64748b"/>
  <rect x="16" y="34" width="8" height="4" fill="#64748b"/>
  <rect x="16" y="48" width="8" height="4" fill="#64748b"/>
  <rect x="16" y="62" width="8" height="4" fill="#64748b"/>
  <rect x="76" y="34" width="8" height="4" fill="#64748b"/>
  <rect x="76" y="48" width="8" height="4" fill="#64748b"/>
  <rect x="76" y="62" width="8" height="4" fill="#64748b"/>
  <!-- Wrench symbol for repair -->
  <path d="M70 75 L78 83 L82 79 L74 71 C75 69 75 67 74 65 L72 63 L66 69 L68 71 C69 72 69 74 68 75 Z" fill="#f59e0b" stroke="#d97706" stroke-width="1"/>
</svg>
